<?xml version="1.0" standalone="no"?><svg xmlns:xlink="http://www.w3.org/1999/xlink" xmlns="http://www.w3.org/2000/svg" viewBox="0 0 1200 800" preserveAspectRatio="xMaxYMax slice"><g transform="scale(2.1739130434782608)"><rect x="0" y="0" width="552" height="368" fill="#277898"/><rect x="0" y="61.33" width="61.33" height="61.33" fill="#287898"/><g transform="translate(0,61.33) scale(3.0665) rotate(0)"><path d="M5 0H10L5 5L0 10V5L5 0Z" fill="#3d828f"/><path d="M20 15V20H15L20 15Z" fill="#3d828f"/><path d="M20 5V10L15 15L10 20H5L20 5Z" fill="#3d828f"/><path d="M15 0H20L5 15.0002L0 20.0002V15.0002L15 0Z" fill="#3d828f"/></g><rect x="0" y="122.66666666666667" width="61.333333333333336" height="61.333333333333336" fill="#277898"/><rect x="0" y="153.33" width="30.67" height="30.67" fill="#e1ce4a"/><g transform="translate(0,153.33) scale(1.5335) rotate(0)"><path d="M10 0H20L0 20V10L10 0Z" fill="#ecd346"/><path d="M20 10V20H10L20 10Z" fill="#ecd346"/></g><rect x="184" y="122.66666666666667" width="61.333333333333336" height="61.333333333333336" fill="#277898"/><rect x="214.67" y="122.67" width="30.67" height="30.67" fill="#46868b"/><rect x="214.67" y="122.67" width="30.67" height="30.67" fill="#06a6ca"/><rect x="429.33333333333337" y="122.66666666666667" width="61.333333333333336" height="61.333333333333336" fill="#277898"/><rect x="0" y="184" width="61.33" height="61.33" fill="#6a977c"/><g transform="translate(0,184) scale(3.0665) rotate(0)"><path d="M10 0H20L0 20V10L10 0Z" fill="#babc5b"/><path d="M20 10V20H10L20 10Z" fill="#babc5b"/></g><rect x="122.67" y="184" width="61.33" height="61.33" fill="#1e85a6"/><polygon points="122.67,184 184,184 122.67,245.32999999999998" fill="#178eb0"/><rect x="306.67" y="184" width="61.33" height="61.33" fill="#d0c651"/><polygon points="306.67,184 368,245.32999999999998 306.67,245.32999999999998" fill="#e4cf49"/><rect x="368" y="184" width="61.33" height="61.33" fill="#2180a1"/><g transform="translate(368,184) scale(3.0665) rotate(0)"><rect width="20" height="2" fill="#317d94"/><rect y="4" width="20" height="2" fill="#317d94"/><rect y="8" width="20" height="2" fill="#317d94"/><rect y="12" width="20" height="2" fill="#317d94"/><rect y="16" width="20" height="2" fill="#317d94"/></g><rect x="0" y="245.33" width="61.33" height="61.33" fill="#287998"/><rect x="0" y="245.33" width="61.33" height="61.33" fill="#cac453"/><rect x="61.33" y="245.33" width="61.33" height="61.33" fill="#63947f"/><g transform="translate(61.33,245.33) scale(3.0665) rotate(0)"><rect width="20" height="2" fill="#1295b8"/><rect y="4" width="20" height="2" fill="#1295b8"/><rect y="8" width="20" height="2" fill="#1295b8"/><rect y="12" width="20" height="2" fill="#1295b8"/><rect y="16" width="20" height="2" fill="#1295b8"/></g><rect x="122.67" y="245.33" width="61.33" height="61.33" fill="#83a272"/><g transform="translate(122.67,245.33) scale(3.0665) rotate(0)"><rect width="20" height="10" fill="#04a8cd"/></g><rect x="184" y="245.33" width="61.33" height="61.33" fill="#1d86a8"/><g transform="translate(184,245.33) scale(3.0665) rotate(0)"><rect width="20" height="2" fill="#8ca76e"/><rect y="4" width="20" height="2" fill="#8ca76e"/><rect y="8" width="20" height="2" fill="#8ca76e"/><rect y="12" width="20" height="2" fill="#8ca76e"/><rect y="16" width="20" height="2" fill="#8ca76e"/></g><rect x="245.33" y="245.33" width="61.33" height="61.33" fill="#bbbd5a"/><g transform="translate(245.33,245.33) scale(3.0665) rotate(0)"><rect width="20" height="10" fill="#f2d643"/></g><rect x="306.67" y="245.33" width="61.33" height="61.33" fill="#86a470"/><rect x="306.67" y="245.33" width="61.33" height="61.33" fill="#8fa86c"/><rect x="368" y="245.33" width="61.33" height="61.33" fill="#a9b462"/><polygon points="368,245.33 429.33,245.33 429.33,306.66" fill="#237e9f"/><rect x="490.67" y="245.33" width="61.33" height="61.33" fill="#c6c255"/><g transform="translate(490.67,245.33) scale(3.0665) rotate(0)"><path d="M10 0H20L0 20V10L10 0Z" fill="#9cae67"/><path d="M20 10V20H10L20 10Z" fill="#9cae67"/></g><rect x="0" y="306.67" width="61.33" height="61.33" fill="#1196b9"/><polygon points="0,306.67 61.33,306.67 0,368" fill="#237e9e"/><rect x="61.33" y="306.67" width="61.33" height="61.33" fill="#1b89aa"/><g transform="translate(61.33,306.67) scale(3.0665) rotate(0)"><path d="M10 0H20L0 20V10L10 0Z" fill="#1197ba"/><path d="M20 10V20H10L20 10Z" fill="#1197ba"/></g><rect x="122.67" y="306.67" width="61.33" height="61.33" fill="#0a9fc3"/><g transform="translate(122.67,306.67) scale(3.0665) rotate(0)"><path d="M5 0H10L5 5L0 10V5L5 0Z" fill="#2d7b95"/><path d="M20 15V20H15L20 15Z" fill="#2d7b95"/><path d="M20 5V10L15 15L10 20H5L20 5Z" fill="#2d7b95"/><path d="M15 0H20L5 15.0002L0 20.0002V15.0002L15 0Z" fill="#2d7b95"/></g><rect x="184" y="306.67" width="61.33" height="61.33" fill="#c5c156"/><rect x="184" y="306.67" width="61.33" height="61.33" fill="#a7b362"/><rect x="245.33" y="306.67" width="61.33" height="61.33" fill="#277898"/><rect x="245.33" y="306.67" width="61.33" height="61.33" fill="#2a7a97"/><rect x="306.67" y="306.67" width="61.33" height="61.33" fill="#d8ca4e"/><g transform="translate(306.67,306.67) scale(3.0665) rotate(0)"><rect width="20" height="10" fill="#1591b3"/></g><rect x="368" y="306.67" width="61.33" height="61.33" fill="#1394b7"/><rect x="368" y="306.67" width="61.33" height="61.33" fill="#1590b3"/><rect x="429.33" y="306.67" width="61.33" height="61.33" fill="#609280"/><rect x="429.33" y="306.67" width="61.33" height="61.33" fill="#3c828f"/><rect x="490.67" y="306.67" width="61.33" height="61.33" fill="#d8ca4e"/><g transform="translate(490.67,306.67) scale(3.0665) rotate(0)"><path d="M10 0H20L0 20V10L10 0Z" fill="#0b9fc3"/><path d="M20 10V20H10L20 10Z" fill="#0b9fc3"/></g></g></svg>